<?xml version="1.0" encoding="UTF-8"?>
<svg id="Capa_1" data-name="Capa 1" xmlns="http://www.w3.org/2000/svg" viewBox="0 0 595.28 841.89">
  <defs>
    <style>
      .cls-1 {
        fill: #fff;
      }

      .cls-2 {
        isolation: isolate;
      }
    </style>
  </defs>
  <rect x="-.33" width="595.93" height="841.89"/>
  <g>
    <g>
      <path class="cls-1" d="M196.95,368.57v.03c2.45.16,4.4,2.19,4.4,4.68s-1.95,4.52-4.4,4.68v.49c2.45.16,4.4,2.19,4.4,4.68s-1.95,4.52-4.4,4.68v.49c2.45.16,4.4,2.19,4.4,4.68s-1.95,4.52-4.4,4.68v.49c2.45.16,4.4,2.19,4.4,4.68s-1.95,4.52-4.4,4.68v.49c2.45.16,4.4,2.19,4.4,4.68s-1.95,4.52-4.4,4.68v.49c2.45.16,4.4,2.19,4.4,4.68s-1.95,4.52-4.4,4.68v.49c2.45.16,4.4,2.19,4.4,4.68s-1.95,4.52-4.4,4.68v.49c2.31.15,4.15,1.96,4.36,4.25h174.94v-73.29h-179.3Z"/>
      <path d="M210.25,377.57v16.83c4.54,1.06,7.92,5.12,7.92,9.98s-3.38,8.92-7.92,9.98v18.49h156.21v-55.29h-156.21Z"/>
    </g>
    <g class="cls-2">
      <g class="cls-2">
        <g class="cls-2">
          <path class="cls-1" d="M222.87,394.98h-4.14v-3.6h12.24v3.6h-4.14v21.6h-3.96v-21.6Z"/>
        </g>
      </g>
      <g class="cls-2">
        <g class="cls-2">
          <path class="cls-1" d="M233.92,415.47c-.88-.95-1.32-2.31-1.32-4.09v-16.73h3.45v16.98c0,.75.15,1.29.45,1.63s.74.5,1.3.5,1-.17,1.3-.5.45-.88.45-1.63v-16.98h3.32v16.73c0,1.78-.44,3.14-1.32,4.09-.88.95-2.15,1.43-3.82,1.43s-2.94-.47-3.82-1.43Z"/>
        </g>
      </g>
      <g class="cls-2">
        <g class="cls-2">
          <path class="cls-1" d="M245.45,391.38h10.8v3.6h-6.84v6.66h5.44v3.6h-5.44v7.74h6.84v3.6h-10.8v-25.2Z"/>
        </g>
      </g>
      <g class="cls-2">
        <g class="cls-2">
          <path class="cls-1" d="M258.32,394.66h4.32l3.35,13.13h.06v-13.13h3.07v21.93h-3.54l-4.14-16.01h-.06v16.01h-3.07v-21.93Z"/>
          <path class="cls-1" d="M274.39,397.79h-3.6v-3.13h10.65v3.13h-3.6v18.8h-3.45v-18.8Z"/>
          <path class="cls-1" d="M283.1,394.66h5.11c1.77,0,3.07.41,3.88,1.24.81.83,1.22,2.09,1.22,3.81v1.35c0,2.28-.75,3.72-2.26,4.32v.06c.83.25,1.43.76,1.77,1.54s.52,1.81.52,3.1v3.85c0,.63.02,1.13.06,1.52.04.39.15.77.31,1.14h-3.51c-.13-.35-.21-.69-.25-1-.04-.31-.06-.88-.06-1.69v-4.01c0-1-.16-1.7-.49-2.1-.32-.4-.88-.59-1.68-.59h-1.19v9.4h-3.45v-21.93ZM287.8,404.06c.69,0,1.21-.18,1.55-.53.34-.35.52-.95.52-1.79v-1.69c0-.79-.14-1.37-.42-1.72-.28-.35-.73-.53-1.33-.53h-1.57v6.27h1.25Z"/>
          <path class="cls-1" d="M298.39,394.66h4.67l3.57,21.93h-3.45l-.63-4.35v.06h-3.92l-.63,4.29h-3.2l3.57-21.93ZM302.14,409.32l-1.54-10.84h-.06l-1.5,10.84h3.1Z"/>
          <path class="cls-1" d="M308.28,394.66h5.26c1.71,0,3,.46,3.85,1.38.86.92,1.29,2.27,1.29,4.04v11.09c0,1.78-.43,3.12-1.29,4.04-.86.92-2.14,1.38-3.85,1.38h-5.26v-21.93ZM313.48,413.45c.56,0,1-.17,1.3-.5s.45-.88.45-1.63v-11.4c0-.75-.15-1.29-.45-1.63-.3-.33-.74-.5-1.3-.5h-1.75v15.66h1.75Z"/>
          <path class="cls-1" d="M323.6,394.66h4.67l3.57,21.93h-3.45l-.63-4.35v.06h-3.92l-.63,4.29h-3.2l3.57-21.93ZM327.36,409.32l-1.54-10.84h-.06l-1.5,10.84h3.1Z"/>
        </g>
      </g>
      <g class="cls-2">
        <g class="cls-2">
          <path class="cls-1" d="M336.43,405.86l-4.79-14.47h4.21l2.7,9.25h.07l2.7-9.25h3.85l-4.79,14.47v10.73h-3.96v-10.73Z"/>
          <path class="cls-1" d="M348.38,391.38h5.37l4.1,25.2h-3.96l-.72-5v.07h-4.5l-.72,4.93h-3.67l4.1-25.2ZM352.7,408.23l-1.76-12.46h-.07l-1.73,12.46h3.56Z"/>
        </g>
      </g>
    </g>
  </g>
</svg>