<?xml version="1.0" encoding="UTF-8"?>
<svg id="Capa_1" xmlns="http://www.w3.org/2000/svg" version="1.1" viewBox="0 0 595.3 841.9">
  <!-- Generator: Adobe Illustrator 29.5.1, SVG Export Plug-In . SVG Version: 2.1.0 Build 141)  -->
  <defs>
    <style>
      .st0 {
        fill: #fff;
      }

      .st1 {
        isolation: isolate;
      }
    </style>
  </defs>
  <path class="st0" d="M197,368.5h0c2.5.3,4.4,2.3,4.4,4.8s-1.9,4.5-4.4,4.7v.5c2.5.2,4.4,2.2,4.4,4.7s-1.9,4.5-4.4,4.7v.5c2.5.2,4.4,2.2,4.4,4.7s-1.9,4.5-4.4,4.7v.5c2.5.2,4.4,2.2,4.4,4.7s-1.9,4.5-4.4,4.7v.5c2.5.2,4.4,2.2,4.4,4.7s-1.9,4.5-4.4,4.7v.5c2.5.2,4.4,2.2,4.4,4.7s-1.9,4.5-4.4,4.7v.5c2.5.2,4.4,2.2,4.4,4.7s-1.9,4.5-4.4,4.7v.5c2.3.2,4.1,2,4.4,4.2h174.9v-73.3h-179.3ZM366.5,432.8h-156.2v-18.5c4.5-1.1,7.9-5.1,7.9-10s-3.4-8.9-7.9-10v-16.8h0s156.2,0,156.2,0v55.3Z"/>
  <g class="st1">
    <g class="st1">
      <g class="st1">
        <path class="st0" d="M222.9,395h-4.1v-3.6h12.2v3.6h-4.1v21.6h-4v-21.6Z"/>
      </g>
    </g>
    <g class="st1">
      <g class="st1">
        <path class="st0" d="M233.9,415.5c-.9-1-1.3-2.3-1.3-4.1v-16.7h3.4v17c0,.8.1,1.3.4,1.6s.7.5,1.3.5,1-.2,1.3-.5.4-.9.4-1.6v-17h3.3v16.7c0,1.8-.4,3.1-1.3,4.1-.9,1-2.1,1.4-3.8,1.4s-2.9-.5-3.8-1.4h0Z"/>
      </g>
    </g>
    <g class="st1">
      <g class="st1">
        <path class="st0" d="M245.4,391.4h10.8v3.6h-6.8v6.7h5.4v3.6h-5.4v7.7h6.8v3.6h-10.8v-25.2Z"/>
      </g>
    </g>
    <g class="st1">
      <g class="st1">
        <path class="st0" d="M258.3,394.7h4.3l3.4,13.1h0v-13.1h3.1v21.9h-3.5l-4.1-16h0v16h-3.1v-21.9h0Z"/>
        <path class="st0" d="M274.4,397.8h-3.6v-3.1h10.6v3.1h-3.6v18.8h-3.5v-18.8h0Z"/>
        <path class="st0" d="M283.1,394.7h5.1c1.8,0,3.1.4,3.9,1.2s1.2,2.1,1.2,3.8v1.4c0,2.3-.8,3.7-2.3,4.3h0c.8.3,1.4.8,1.8,1.6s.5,1.8.5,3.1v3.9c0,.6,0,1.1,0,1.5,0,.4.1.8.3,1.1h-3.5c-.1-.4-.2-.7-.2-1s0-.9,0-1.7v-4c0-1-.2-1.7-.5-2.1-.3-.4-.9-.6-1.7-.6h-1.2v9.4h-3.5v-21.9h0ZM287.8,404.1c.7,0,1.2-.2,1.5-.5s.5-1,.5-1.8v-1.7c0-.8-.1-1.4-.4-1.7s-.7-.5-1.3-.5h-1.6v6.3h1.3Z"/>
        <path class="st0" d="M298.4,394.7h4.7l3.6,21.9h-3.5l-.6-4.4h0c0,0-3.9,0-3.9,0l-.6,4.3h-3.2l3.6-21.9h0ZM302.1,409.3l-1.5-10.8h0l-1.5,10.8h3.1Z"/>
        <path class="st0" d="M308.3,394.7h5.3c1.7,0,3,.5,3.9,1.4.9.9,1.3,2.3,1.3,4v11.1c0,1.8-.4,3.1-1.3,4-.9.9-2.1,1.4-3.9,1.4h-5.3v-21.9h0ZM313.5,413.5c.6,0,1-.2,1.3-.5s.5-.9.5-1.6v-11.4c0-.8-.1-1.3-.5-1.6-.3-.3-.7-.5-1.3-.5h-1.8v15.7h1.8Z"/>
        <path class="st0" d="M323.6,394.7h4.7l3.6,21.9h-3.5l-.6-4.4h0c0,0-3.9,0-3.9,0l-.6,4.3h-3.2l3.6-21.9h0ZM327.4,409.3l-1.5-10.8h0l-1.5,10.8h3.1Z"/>
      </g>
    </g>
    <g class="st1">
      <g class="st1">
        <path class="st0" d="M336.4,405.9l-4.8-14.5h4.2l2.7,9.2h0l2.7-9.2h3.9l-4.8,14.5v10.7h-4v-10.7h0Z"/>
        <path class="st0" d="M348.4,391.4h5.4l4.1,25.2h-4l-.7-5h0c0,0-4.5,0-4.5,0l-.7,4.9h-3.7l4.1-25.2ZM352.7,408.2l-1.8-12.5h0l-1.7,12.5h3.6Z"/>
      </g>
    </g>
  </g>
</svg>