<?xml version="1.0" encoding="UTF-8"?>
<svg id="Capa_1" xmlns="http://www.w3.org/2000/svg" version="1.1" viewBox="0 0 181.4 73.7">
  <!-- Generator: Adobe Illustrator 29.5.1, SVG Export Plug-In . SVG Version: 2.1.0 Build 141)  -->
  <defs>
    <style>
      .st0 {
        fill: #fff;
      }

      .st1 {
        isolation: isolate;
      }
    </style>
  </defs>
  <path class="st0" d="M1.1.2h0c2.5.2,4.4,2.2,4.4,4.7s-1.9,4.5-4.4,4.7v.5c2.5.2,4.4,2.2,4.4,4.7s-1.9,4.5-4.4,4.7v.5c2.5.2,4.4,2.2,4.4,4.7s-1.9,4.5-4.4,4.7v.5c2.5.2,4.4,2.2,4.4,4.7s-1.9,4.5-4.4,4.7v.5c2.5.2,4.4,2.2,4.4,4.7s-1.9,4.5-4.4,4.7v.5c2.5.2,4.4,2.2,4.4,4.7s-1.9,4.5-4.4,4.7v.5c2.5.2,4.4,2.2,4.4,4.7s-1.9,4.5-4.4,4.7v.5c2.3.2,4.1,2,4.4,4.3h174.9V.2H1.1ZM170.6,64.5H14.4v-18.5c4.5-1.1,7.9-5.1,7.9-10s-3.4-8.9-7.9-10V9.2h156.2v55.3Z"/>
  <g class="st1">
    <g class="st1">
      <g class="st1">
        <path class="st0" d="M27,26.6h-4.1v-3.6h12.2v3.6h-4.1v21.6h-4v-21.6Z"/>
      </g>
    </g>
    <g class="st1">
      <g class="st1">
        <path class="st0" d="M38,47.1c-.9-1-1.3-2.3-1.3-4.1v-16.7h3.4v17c0,.8.2,1.3.5,1.6s.7.5,1.3.5,1-.2,1.3-.5.5-.9.5-1.6v-17h3.3v16.7c0,1.8-.4,3.1-1.3,4.1-.9,1-2.2,1.4-3.8,1.4s-2.9-.5-3.8-1.4Z"/>
      </g>
    </g>
    <g class="st1">
      <g class="st1">
        <path class="st0" d="M49.6,23h10.8v3.6h-6.8v6.7h5.4v3.6h-5.4v7.7h6.8v3.6h-10.8v-25.2Z"/>
      </g>
    </g>
    <g class="st1">
      <g class="st1">
        <path class="st0" d="M62.4,26.3h4.3l3.4,13.1h0v-13.1h3.1v21.9h-3.5l-4.1-16h0v16h-3.1v-21.9Z"/>
        <path class="st0" d="M78.5,29.4h-3.6v-3.1h10.7v3.1h-3.6v18.8h-3.4v-18.8Z"/>
        <path class="st0" d="M87.2,26.3h5.1c1.8,0,3.1.4,3.9,1.2.8.8,1.2,2.1,1.2,3.8v1.3c0,2.3-.8,3.7-2.3,4.3h0c.8.3,1.4.8,1.8,1.6s.5,1.8.5,3.1v3.9c0,.6,0,1.1,0,1.5,0,.4.1.8.3,1.1h-3.5c-.1-.4-.2-.7-.3-1,0-.3,0-.9,0-1.7v-4c0-1-.2-1.7-.5-2.1-.3-.4-.9-.6-1.7-.6h-1.2v9.4h-3.4v-21.9ZM91.9,35.7c.7,0,1.2-.2,1.6-.5.3-.4.5-1,.5-1.8v-1.7c0-.8-.1-1.4-.4-1.7-.3-.4-.7-.5-1.3-.5h-1.6v6.3h1.3Z"/>
        <path class="st0" d="M102.5,26.3h4.7l3.6,21.9h-3.4l-.6-4.4h0c0,0-3.9,0-3.9,0l-.6,4.3h-3.2l3.6-21.9ZM106.3,41l-1.5-10.8h0l-1.5,10.8h3.1Z"/>
        <path class="st0" d="M112.4,26.3h5.3c1.7,0,3,.5,3.9,1.4.9.9,1.3,2.3,1.3,4v11.1c0,1.8-.4,3.1-1.3,4-.9.9-2.1,1.4-3.9,1.4h-5.3v-21.9ZM117.6,45.1c.6,0,1-.2,1.3-.5s.5-.9.5-1.6v-11.4c0-.8-.2-1.3-.5-1.6-.3-.3-.7-.5-1.3-.5h-1.8v15.7h1.8Z"/>
        <path class="st0" d="M127.7,26.3h4.7l3.6,21.9h-3.4l-.6-4.4h0c0,0-3.9,0-3.9,0l-.6,4.3h-3.2l3.6-21.9ZM131.5,41l-1.5-10.8h0l-1.5,10.8h3.1Z"/>
      </g>
    </g>
    <g class="st1">
      <g class="st1">
        <path class="st0" d="M140.5,37.5l-4.8-14.5h4.2l2.7,9.3h0l2.7-9.3h3.9l-4.8,14.5v10.7h-4v-10.7Z"/>
        <path class="st0" d="M152.5,23h5.4l4.1,25.2h-4l-.7-5h0c0,0-4.5,0-4.5,0l-.7,4.9h-3.7l4.1-25.2ZM156.8,39.9l-1.8-12.5h0l-1.7,12.5h3.6Z"/>
      </g>
    </g>
  </g>
</svg>